<?xml version="1.0" encoding="UTF-8"?>
<svg width="200" height="120" viewBox="0 0 200 120" fill="none" xmlns="http://www.w3.org/2000/svg">
  <!-- Scanner Frame -->
  <path d="M20 10 L10 10 Q5 10 5 15 L5 25" stroke="#0066B3" stroke-width="3"/>
  <path d="M180 10 L190 10 Q195 10 195 15 L195 25" stroke="#0066B3" stroke-width="3"/>
  <path d="M20 110 L10 110 Q5 110 5 105 L5 95" stroke="#0066B3" stroke-width="3"/>
  <path d="M180 110 L190 110 Q195 110 195 105 L195 95" stroke="#0066B3" stroke-width="3"/>
  
  <!-- Scanner Lines -->
  <rect x="30" y="10" width="4" height="15" rx="1" fill="#0066B3"/>
  <rect x="166" y="10" width="4" height="15" rx="1" fill="#0066B3"/>
  <rect x="30" y="95" width="4" height="15" rx="1" fill="#0066B3"/>
  <rect x="166" y="95" width="4" height="15" rx="1" fill="#0066B3"/>
  
  <!-- Circle with People Icon -->
  <circle cx="100" cy="45" r="25" fill="#0066B3"/>
  <path d="M90 45 A5 5 0 1 0 90 45 M110 45 A5 5 0 1 0 110 45 M100 45 A5 5 0 1 0 100 45" fill="white"/>
  <path d="M85 55 Q100 65 115 55" stroke="white" stroke-width="2" fill="none"/>
  
  <!-- OPTURA Text -->
  <text x="100" y="100" font-family="Arial, sans-serif" font-size="24" font-weight="bold" text-anchor="middle" fill="#0066B3">optura</text>
  
  <!-- Registered Trademark -->
  <text x="185" y="85" font-family="Arial, sans-serif" font-size="8" fill="#0066B3">®</text>
</svg> 