<?xml version="1.0" encoding="UTF-8"?>
<svg width="240" height="144" viewBox="0 0 240 144" fill="none" xmlns="http://www.w3.org/2000/svg">
  <!-- Scanner Frame -->
  <path d="M24 12 L12 12 Q6 12 6 18 L6 30" stroke="#0066B3" stroke-width="3"/>
  <path d="M216 12 L228 12 Q234 12 234 18 L234 30" stroke="#0066B3" stroke-width="3"/>
  <path d="M24 132 L12 132 Q6 132 6 126 L6 114" stroke="#0066B3" stroke-width="3"/>
  <path d="M216 132 L228 132 Q234 132 234 126 L234 114" stroke="#0066B3" stroke-width="3"/>
  
  <!-- Scanner Lines -->
  <rect x="36" y="12" width="5" height="18" rx="1" fill="#0066B3"/>
  <rect x="199" y="12" width="5" height="18" rx="1" fill="#0066B3"/>
  <rect x="36" y="114" width="5" height="18" rx="1" fill="#0066B3"/>
  <rect x="199" y="114" width="5" height="18" rx="1" fill="#0066B3"/>
  
  <!-- Circle with People Icon -->
  <circle cx="120" cy="54" r="30" fill="#0066B3"/>
  <path d="M108 54 A6 6 0 1 0 108 54 M132 54 A6 6 0 1 0 132 54 M120 54 A6 6 0 1 0 120 54" fill="white"/>
  <path d="M102 66 Q120 78 138 66" stroke="white" stroke-width="2.4" fill="none"/>
  
  <!-- OPTURA Text -->
  <text x="120" y="120" font-family="Arial, sans-serif" font-size="29" font-weight="bold" text-anchor="middle" fill="#0066B3">optura</text>
  
  <!-- Registered Trademark -->
  <text x="222" y="102" font-family="Arial, sans-serif" font-size="10" fill="#0066B3">®</text>
</svg> 